<svg xmlns="http://www.w3.org/2000/svg" aria-label="TTDash favicon" viewBox="0 0 64 64"><defs><linearGradient id="a" x1="8" x2="58" y1="6" y2="58" gradientUnits="userSpaceOnUse"><stop offset="0" stop-color="#111827"/><stop offset=".55" stop-color="#0f172a"/><stop offset="1" stop-color="#1e293b"/></linearGradient><linearGradient id="b" x1="18" x2="30" y1="16" y2="49" gradientUnits="userSpaceOnUse"><stop offset="0" stop-color="#f59e0b"/><stop offset="1" stop-color="#f97316"/></linearGradient><linearGradient id="c" x1="34" x2="50" y1="14" y2="50" gradientUnits="userSpaceOnUse"><stop offset="0" stop-color="#38bdf8"/><stop offset="1" stop-color="#2563eb"/></linearGradient><linearGradient id="d" x1="39" x2="53" y1="38" y2="24" gradientUnits="userSpaceOnUse"><stop offset="0" stop-color="#a78bfa"/><stop offset="1" stop-color="#f472b6"/></linearGradient></defs><rect width="64" height="64" fill="url(#a)" rx="16"/><path fill="url(#b)" d="M18 14h18v8h-5v28h-8V22h-5z"/><path fill="url(#c)" d="M31 14h20v8h-6v28h-8V22h-6z"/><path fill="none" stroke="url(#d)" stroke-linecap="round" stroke-linejoin="round" stroke-width="4" d="m38 41.5 7-7.5 5 3.5"/><circle cx="50" cy="37.5" r="3.5" fill="#f8fafc"/><path fill="none" stroke="rgba(255,255,255,.16)" stroke-linecap="round" stroke-width="3" d="M14 49c7-4 12-6 18-6 8 0 13 3 18 9"/></svg>